<mxfile host="65bd71144e">
    <diagram id="IzlWljc9zSmGIL-t-2Ne" name="第 1 页">
        <mxGraphModel dx="3046" dy="678" grid="1" gridSize="10" guides="1" tooltips="1" connect="1" arrows="1" fold="1" page="1" pageScale="1" pageWidth="827" pageHeight="1169" math="0" shadow="0">
            <root>
                <mxCell id="0"/>
                <mxCell id="1" parent="0"/>
                <mxCell id="4" value="A" style="ellipse;whiteSpace=wrap;html=1;aspect=fixed;" vertex="1" parent="1">
                    <mxGeometry x="-380" y="390" width="80" height="80" as="geometry"/>
                </mxCell>
                <mxCell id="5" value="B" style="ellipse;whiteSpace=wrap;html=1;aspect=fixed;" vertex="1" parent="1">
                    <mxGeometry x="1210" y="370" width="80" height="80" as="geometry"/>
                </mxCell>
                <mxCell id="6" value="server" style="shape=cylinder3;whiteSpace=wrap;html=1;boundedLbl=1;backgroundOutline=1;size=15;" vertex="1" parent="1">
                    <mxGeometry x="384" y="490" width="60" height="80" as="geometry"/>
                </mxCell>
                <mxCell id="7" value="" style="curved=1;endArrow=classic;html=1;" edge="1" parent="1" source="4">
                    <mxGeometry width="50" height="50" relative="1" as="geometry">
                        <mxPoint x="79.03999999999996" y="280" as="sourcePoint"/>
                        <mxPoint x="-120" y="380" as="targetPoint"/>
                    </mxGeometry>
                </mxCell>
                <mxCell id="8" value="&lt;div style=&quot;color: rgb(80 , 79 , 99) ; background-color: rgb(242 , 242 , 242) ; font-family: &amp;#34;menlo&amp;#34; , &amp;#34;monaco&amp;#34; , &amp;#34;courier new&amp;#34; , monospace ; font-size: 14px ; line-height: 28px&quot;&gt;&lt;span style=&quot;color: #0c969b ; font-style: italic&quot;&gt;1.socket&lt;/span&gt;&lt;span style=&quot;color: #994cc3 ; font-style: italic&quot;&gt;.&lt;/span&gt;&lt;span style=&quot;color: #4b72c5 ; font-style: italic&quot;&gt;emit&lt;/span&gt;&lt;span style=&quot;color: #706f83&quot;&gt;(&lt;/span&gt;&lt;span style=&quot;color: #111111&quot;&gt;'&lt;/span&gt;&lt;span style=&quot;color: #b95765&quot;&gt;SyncReqest&lt;/span&gt;&lt;span style=&quot;color: #111111&quot;&gt;'&lt;/span&gt;&lt;span style=&quot;color: #5f7e97&quot;&gt;,&lt;/span&gt; &lt;span style=&quot;color: #706f83&quot;&gt;syncReqest)&lt;/span&gt;&lt;/div&gt;&lt;div style=&quot;background-color: rgb(242 , 242 , 242) ; font-family: &amp;#34;menlo&amp;#34; , &amp;#34;monaco&amp;#34; , &amp;#34;courier new&amp;#34; , monospace ; font-size: 14px ; line-height: 28px&quot;&gt;&lt;font color=&quot;#706f83&quot;&gt;A发起通话请求&lt;/font&gt;&lt;/div&gt;" style="edgeLabel;html=1;align=center;verticalAlign=middle;resizable=0;points=[];labelBorderColor=none;" vertex="1" connectable="0" parent="7">
                    <mxGeometry x="0.1536" y="-2" relative="1" as="geometry">
                        <mxPoint x="250" y="-41" as="offset"/>
                    </mxGeometry>
                </mxCell>
                <mxCell id="9" value="" style="curved=1;endArrow=classic;html=1;exitX=1;exitY=0;exitDx=0;exitDy=27.5;exitPerimeter=0;" edge="1" parent="1" source="6">
                    <mxGeometry width="50" height="50" relative="1" as="geometry">
                        <mxPoint x="480" y="310" as="sourcePoint"/>
                        <mxPoint x="660" y="400" as="targetPoint"/>
                    </mxGeometry>
                </mxCell>
                <mxCell id="16" value="&lt;div style=&quot;color: rgb(80 , 79 , 99) ; background-color: rgb(242 , 242 , 242) ; font-family: &amp;#34;menlo&amp;#34; , &amp;#34;monaco&amp;#34; , &amp;#34;courier new&amp;#34; , monospace ; font-size: 14px ; line-height: 28px&quot;&gt;&lt;span style=&quot;color: #0c969b ; font-style: italic&quot;&gt;2.socket&lt;/span&gt;&lt;span style=&quot;color: #994cc3 ; font-style: italic&quot;&gt;.&lt;/span&gt;&lt;span style=&quot;color: #111111 ; font-style: italic&quot;&gt;broadcast&lt;/span&gt;&lt;span style=&quot;color: #994cc3 ; font-style: italic&quot;&gt;.&lt;/span&gt;&lt;span style=&quot;color: #4b72c5 ; font-style: italic&quot;&gt;emit&lt;/span&gt;&lt;span style=&quot;color: #706f83&quot;&gt;(&lt;/span&gt;&lt;span style=&quot;color: #111111&quot;&gt;'&lt;/span&gt;&lt;span style=&quot;color: #b95765&quot;&gt;SyncReqest&lt;/span&gt;&lt;span style=&quot;color: #111111&quot;&gt;'&lt;/span&gt;, &lt;span style=&quot;color: #706f83&quot;&gt;msg)&lt;/span&gt;;&lt;/div&gt;&lt;div style=&quot;color: rgb(80 , 79 , 99) ; background-color: rgb(242 , 242 , 242) ; font-family: &amp;#34;menlo&amp;#34; , &amp;#34;monaco&amp;#34; , &amp;#34;courier new&amp;#34; , monospace ; font-size: 14px ; line-height: 28px&quot;&gt;通话请求广播给其他人&lt;/div&gt;" style="edgeLabel;html=1;align=center;verticalAlign=middle;resizable=0;points=[];" vertex="1" connectable="0" parent="9">
                    <mxGeometry x="-0.0443" y="5" relative="1" as="geometry">
                        <mxPoint x="295" y="-70" as="offset"/>
                    </mxGeometry>
                </mxCell>
                <mxCell id="11" value="" style="curved=1;endArrow=classic;html=1;exitX=0;exitY=1;exitDx=0;exitDy=0;startArrow=none;" edge="1" parent="1" source="5" target="12">
                    <mxGeometry width="50" height="50" relative="1" as="geometry">
                        <mxPoint x="560" y="400" as="sourcePoint"/>
                        <mxPoint x="610" y="350" as="targetPoint"/>
                    </mxGeometry>
                </mxCell>
                <mxCell id="12" value="&lt;div style=&quot;color: rgb(80 , 79 , 99) ; background-color: rgb(242 , 242 , 242) ; font-family: &amp;#34;menlo&amp;#34; , &amp;#34;monaco&amp;#34; , &amp;#34;courier new&amp;#34; , monospace ; font-size: 14px ; line-height: 28px&quot;&gt;&lt;span style=&quot;color: #0c969b ; font-style: italic&quot;&gt;3.socket&lt;/span&gt;&lt;span style=&quot;color: #994cc3 ; font-style: italic&quot;&gt;.&lt;/span&gt;&lt;span style=&quot;color: #4b72c5 ; font-style: italic&quot;&gt;emit&lt;/span&gt;&lt;span style=&quot;color: #706f83&quot;&gt;(&lt;/span&gt;&lt;span style=&quot;color: #111111&quot;&gt;'&lt;/span&gt;&lt;span style=&quot;color: #b95765&quot;&gt;SyncResponse&lt;/span&gt;&lt;span style=&quot;color: #111111&quot;&gt;'&lt;/span&gt;&lt;span style=&quot;color: #5f7e97&quot;&gt;,&lt;/span&gt; &lt;span style=&quot;color: #706f83&quot;&gt;syncRespone)&lt;/span&gt;;&lt;/div&gt;&lt;div style=&quot;color: rgb(80 , 79 , 99) ; background-color: rgb(242 , 242 , 242) ; font-family: &amp;#34;menlo&amp;#34; , &amp;#34;monaco&amp;#34; , &amp;#34;courier new&amp;#34; , monospace ; font-size: 14px ; line-height: 28px&quot;&gt;B收到请求并发送回执，&lt;/div&gt;&lt;div style=&quot;color: rgb(80 , 79 , 99) ; background-color: rgb(242 , 242 , 242) ; font-family: &amp;#34;menlo&amp;#34; , &amp;#34;monaco&amp;#34; , &amp;#34;courier new&amp;#34; , monospace ; font-size: 14px ; line-height: 28px&quot;&gt;同时开始创建推流&lt;/div&gt;" style="text;html=1;align=center;verticalAlign=middle;resizable=0;points=[];autosize=1;strokeColor=none;fillColor=none;" vertex="1" parent="1">
                    <mxGeometry x="660" y="450" width="380" height="90" as="geometry"/>
                </mxCell>
                <mxCell id="18" value="" style="curved=1;endArrow=classic;html=1;entryX=1;entryY=0.5;entryDx=0;entryDy=0;" edge="1" parent="1" target="4">
                    <mxGeometry width="50" height="50" relative="1" as="geometry">
                        <mxPoint x="-130" y="460" as="sourcePoint"/>
                        <mxPoint x="290" y="370" as="targetPoint"/>
                    </mxGeometry>
                </mxCell>
                <mxCell id="19" value="&lt;div style=&quot;color: rgb(80 , 79 , 99) ; background-color: rgb(242 , 242 , 242) ; font-family: &amp;#34;menlo&amp;#34; , &amp;#34;monaco&amp;#34; , &amp;#34;courier new&amp;#34; , monospace ; font-size: 14px ; line-height: 28px&quot;&gt;&lt;span style=&quot;color: #0c969b ; font-style: italic&quot;&gt;4.socket&lt;/span&gt;&lt;span style=&quot;color: #994cc3 ; font-style: italic&quot;&gt;.&lt;/span&gt;&lt;span style=&quot;color: #111111 ; font-style: italic&quot;&gt;broadcast&lt;/span&gt;&lt;span style=&quot;color: #994cc3 ; font-style: italic&quot;&gt;.&lt;/span&gt;&lt;span style=&quot;color: #4b72c5 ; font-style: italic&quot;&gt;emit&lt;/span&gt;&lt;span style=&quot;color: #706f83&quot;&gt;(&lt;/span&gt;&lt;span style=&quot;color: #111111&quot;&gt;'&lt;/span&gt;&lt;span style=&quot;color: #b95765&quot;&gt;SyncResponse&lt;/span&gt;&lt;span style=&quot;color: #111111&quot;&gt;'&lt;/span&gt;, &lt;span style=&quot;color: #706f83&quot;&gt;msg)&lt;/span&gt;;&lt;/div&gt;&lt;div style=&quot;color: rgb(80 , 79 , 99) ; background-color: rgb(242 , 242 , 242) ; font-family: &amp;#34;menlo&amp;#34; , &amp;#34;monaco&amp;#34; , &amp;#34;courier new&amp;#34; , monospace ; font-size: 14px ; line-height: 28px&quot;&gt;收到回执并开始准备播放&lt;/div&gt;" style="edgeLabel;html=1;align=left;verticalAlign=middle;resizable=0;points=[];" vertex="1" connectable="0" parent="18">
                    <mxGeometry x="0.1123" y="1" relative="1" as="geometry">
                        <mxPoint x="105" y="16" as="offset"/>
                    </mxGeometry>
                </mxCell>
                <mxCell id="21" value="&lt;div style=&quot;color: rgb(80 , 79 , 99) ; background-color: rgb(242 , 242 , 242) ; font-family: &amp;#34;menlo&amp;#34; , &amp;#34;monaco&amp;#34; , &amp;#34;courier new&amp;#34; , monospace ; font-size: 14px ; line-height: 28px&quot;&gt;&lt;span style=&quot;color: #0c969b ; font-style: italic&quot;&gt;3.1.streamer&lt;/span&gt;&lt;span style=&quot;color: #994cc3 ; font-style: italic&quot;&gt;.&lt;/span&gt;&lt;span style=&quot;color: #4b72c5 ; font-style: italic&quot;&gt;start&lt;/span&gt;&lt;span style=&quot;color: #706f83&quot;&gt;()&lt;/span&gt;;&lt;/div&gt;" style="text;html=1;align=center;verticalAlign=middle;resizable=0;points=[];autosize=1;strokeColor=none;fillColor=none;" vertex="1" parent="1">
                    <mxGeometry x="1200" y="600" width="190" height="30" as="geometry"/>
                </mxCell>
                <mxCell id="22" value="" style="curved=1;endArrow=classic;html=1;exitX=0.945;exitY=1.017;exitDx=0;exitDy=0;exitPerimeter=0;" edge="1" parent="1" source="12" target="21">
                    <mxGeometry width="50" height="50" relative="1" as="geometry">
                        <mxPoint x="-330" y="400" as="sourcePoint"/>
                        <mxPoint x="-280" y="350" as="targetPoint"/>
                        <Array as="points"/>
                    </mxGeometry>
                </mxCell>
                <mxCell id="23" value="" style="endArrow=classic;html=1;entryX=0;entryY=0;entryDx=0;entryDy=15;entryPerimeter=0;" edge="1" parent="1" target="6">
                    <mxGeometry width="50" height="50" relative="1" as="geometry">
                        <mxPoint x="220" y="370" as="sourcePoint"/>
                        <mxPoint x="610" y="400" as="targetPoint"/>
                    </mxGeometry>
                </mxCell>
                <mxCell id="24" value="" style="endArrow=classic;html=1;" edge="1" parent="1">
                    <mxGeometry width="50" height="50" relative="1" as="geometry">
                        <mxPoint x="380" y="520" as="sourcePoint"/>
                        <mxPoint x="250" y="470" as="targetPoint"/>
                    </mxGeometry>
                </mxCell>
                <mxCell id="25" value="" style="endArrow=classic;html=1;entryX=0;entryY=0.725;entryDx=0;entryDy=0;entryPerimeter=0;" edge="1" parent="1" target="5">
                    <mxGeometry width="50" height="50" relative="1" as="geometry">
                        <mxPoint x="1020" y="400" as="sourcePoint"/>
                        <mxPoint x="610" y="400" as="targetPoint"/>
                    </mxGeometry>
                </mxCell>
                <mxCell id="26" value="" style="endArrow=classic;html=1;entryX=1;entryY=0;entryDx=0;entryDy=52.5;entryPerimeter=0;exitX=0.003;exitY=0.367;exitDx=0;exitDy=0;exitPerimeter=0;" edge="1" parent="1" source="12" target="6">
                    <mxGeometry width="50" height="50" relative="1" as="geometry">
                        <mxPoint x="560" y="450" as="sourcePoint"/>
                        <mxPoint x="610" y="400" as="targetPoint"/>
                    </mxGeometry>
                </mxCell>
                <mxCell id="28" value="&lt;div style=&quot;color: rgb(80 , 79 , 99) ; background-color: rgb(242 , 242 , 242) ; font-family: &amp;#34;menlo&amp;#34; , &amp;#34;monaco&amp;#34; , &amp;#34;courier new&amp;#34; , monospace ; font-size: 14px ; line-height: 28px&quot;&gt;&lt;span style=&quot;color: #0c969b ; font-style: italic&quot;&gt;4.1 player&lt;/span&gt;&lt;span style=&quot;color: #994cc3 ; font-style: italic&quot;&gt;.&lt;/span&gt;&lt;span style=&quot;color: #4b72c5 ; font-style: italic&quot;&gt;start&lt;/span&gt;&lt;span style=&quot;color: #706f83&quot;&gt;()&lt;/span&gt;;&lt;/div&gt;&lt;div style=&quot;color: rgb(80 , 79 , 99) ; background-color: rgb(242 , 242 , 242) ; font-family: &amp;#34;menlo&amp;#34; , &amp;#34;monaco&amp;#34; , &amp;#34;courier new&amp;#34; , monospace ; font-size: 14px ; line-height: 28px&quot;&gt;准备播放音频流&lt;/div&gt;" style="text;html=1;align=center;verticalAlign=middle;resizable=0;points=[];autosize=1;strokeColor=none;fillColor=none;" vertex="1" parent="1">
                    <mxGeometry x="-450" y="610" width="180" height="60" as="geometry"/>
                </mxCell>
                <mxCell id="29" value="" style="endArrow=classic;html=1;entryX=0.7;entryY=-0.033;entryDx=0;entryDy=0;entryPerimeter=0;" edge="1" parent="1" target="28">
                    <mxGeometry width="50" height="50" relative="1" as="geometry">
                        <mxPoint x="-130" y="470" as="sourcePoint"/>
                        <mxPoint x="-490" y="680" as="targetPoint"/>
                    </mxGeometry>
                </mxCell>
                <mxCell id="30" value="&lt;div style=&quot;color: rgb(80 , 79 , 99) ; background-color: rgb(242 , 242 , 242) ; font-family: &amp;#34;menlo&amp;#34; , &amp;#34;monaco&amp;#34; , &amp;#34;courier new&amp;#34; , monospace ; font-size: 14px ; line-height: 28px&quot;&gt;&lt;span style=&quot;color: #994cc3 ; font-weight: bold&quot;&gt;this&lt;/span&gt;&lt;span style=&quot;color: #994cc3 ; font-style: italic&quot;&gt;.&lt;/span&gt;&lt;span style=&quot;color: #4b72c5 ; font-style: italic&quot;&gt;_makeStream&lt;/span&gt;&lt;/div&gt;" style="text;html=1;align=center;verticalAlign=middle;resizable=0;points=[];autosize=1;strokeColor=none;fillColor=none;" vertex="1" parent="1">
                    <mxGeometry x="1250" y="660" width="150" height="30" as="geometry"/>
                </mxCell>
                <mxCell id="31" value="" style="endArrow=classic;html=1;" edge="1" parent="1" source="21" target="30">
                    <mxGeometry width="50" height="50" relative="1" as="geometry">
                        <mxPoint x="820" y="740" as="sourcePoint"/>
                        <mxPoint x="870" y="690" as="targetPoint"/>
                    </mxGeometry>
                </mxCell>
                <mxCell id="32" value="&lt;div style=&quot;color: rgb(80 , 79 , 99) ; background-color: rgb(242 , 242 , 242) ; font-family: &amp;#34;menlo&amp;#34; , &amp;#34;monaco&amp;#34; , &amp;#34;courier new&amp;#34; , monospace ; font-size: 14px ; line-height: 28px&quot;&gt;&lt;span style=&quot;color: #0c969b ; font-style: italic&quot;&gt;navigator&lt;/span&gt;&lt;span style=&quot;color: #994cc3 ; font-style: italic&quot;&gt;.&lt;/span&gt;&lt;span style=&quot;color: #4b72c5 ; font-style: italic&quot;&gt;getUserMedia&amp;nbsp;&lt;/span&gt;&lt;span style=&quot;font-family: &amp;#34;menlo&amp;#34; , &amp;#34;monaco&amp;#34; , &amp;#34;courier new&amp;#34; , monospace ; color: rgb(153 , 76 , 195) ; font-style: italic&quot;&gt;audio&lt;/span&gt;&lt;span style=&quot;font-family: &amp;#34;menlo&amp;#34; , &amp;#34;monaco&amp;#34; , &amp;#34;courier new&amp;#34; , monospace ; color: rgb(153 , 76 , 195)&quot;&gt;:&lt;/span&gt;&lt;span style=&quot;font-family: &amp;#34;menlo&amp;#34; , &amp;#34;monaco&amp;#34; , &amp;#34;courier new&amp;#34; , monospace ; color: rgb(153 , 76 , 195) ; font-style: italic&quot;&gt; &lt;/span&gt;&lt;span style=&quot;font-family: &amp;#34;menlo&amp;#34; , &amp;#34;monaco&amp;#34; , &amp;#34;courier new&amp;#34; , monospace ; color: rgb(188 , 84 , 84) ; font-weight: bold&quot;&gt;true 得到音频流&lt;/span&gt;&lt;/div&gt;" style="text;html=1;align=center;verticalAlign=middle;resizable=0;points=[];autosize=1;strokeColor=none;fillColor=none;" vertex="1" parent="1">
                    <mxGeometry x="1130" y="730" width="380" height="30" as="geometry"/>
                </mxCell>
                <mxCell id="33" value="" style="endArrow=classic;html=1;" edge="1" parent="1" source="30" target="32">
                    <mxGeometry width="50" height="50" relative="1" as="geometry">
                        <mxPoint x="660" y="570" as="sourcePoint"/>
                        <mxPoint x="710" y="520" as="targetPoint"/>
                    </mxGeometry>
                </mxCell>
                <mxCell id="34" value="&lt;div style=&quot;background-color: rgb(242 , 242 , 242) ; font-family: &amp;#34;menlo&amp;#34; , &amp;#34;monaco&amp;#34; , &amp;#34;courier new&amp;#34; , monospace ; font-size: 14px ; line-height: 28px&quot;&gt;&lt;font color=&quot;#0c969b&quot;&gt;&lt;i&gt;创建&amp;nbsp;&lt;/i&gt;&lt;/font&gt;&lt;span style=&quot;color: rgb(12 , 150 , 155) ; font-style: italic ; font-family: &amp;#34;menlo&amp;#34; , &amp;#34;monaco&amp;#34; , &amp;#34;courier new&amp;#34; , monospace&quot;&gt;audioInput，gainNode，&lt;/span&gt;&lt;span style=&quot;color: rgb(12 , 150 , 155) ; font-style: italic ; font-family: &amp;#34;menlo&amp;#34; , &amp;#34;monaco&amp;#34; , &amp;#34;courier new&amp;#34; , monospace&quot;&gt;recorder,并绑定三者关系&lt;/span&gt;&lt;/div&gt;" style="text;html=1;align=center;verticalAlign=middle;resizable=0;points=[];autosize=1;strokeColor=none;fillColor=none;" vertex="1" parent="1">
                    <mxGeometry x="1100" y="800" width="410" height="30" as="geometry"/>
                </mxCell>
                <mxCell id="36" value="" style="endArrow=classic;html=1;exitX=0.523;exitY=0.938;exitDx=0;exitDy=0;exitPerimeter=0;" edge="1" parent="1" source="32" target="34">
                    <mxGeometry width="50" height="50" relative="1" as="geometry">
                        <mxPoint x="650" y="560" as="sourcePoint"/>
                        <mxPoint x="700" y="510" as="targetPoint"/>
                    </mxGeometry>
                </mxCell>
                <mxCell id="39" value="&lt;div style=&quot;color: rgb(80 , 79 , 99) ; background-color: rgb(242 , 242 , 242) ; font-family: &amp;#34;menlo&amp;#34; , &amp;#34;monaco&amp;#34; , &amp;#34;courier new&amp;#34; , monospace ; font-size: 14px ; line-height: 28px&quot;&gt;&lt;span style=&quot;color: #111111 ; font-style: italic&quot;&gt;recorder&lt;/span&gt;&lt;span style=&quot;color: #994cc3 ; font-style: italic&quot;&gt;.&lt;/span&gt;&lt;span style=&quot;color: #4b72c5 ; font-style: italic&quot;&gt;onaudioprocess 注册监听缓冲区时间&lt;/span&gt;&lt;/div&gt;&lt;div style=&quot;color: rgb(80 , 79 , 99) ; background-color: rgb(242 , 242 , 242) ; font-family: &amp;#34;menlo&amp;#34; , &amp;#34;monaco&amp;#34; , &amp;#34;courier new&amp;#34; , monospace ; font-size: 14px ; line-height: 28px&quot;&gt;&lt;span style=&quot;color: #4b72c5 ; font-style: italic&quot;&gt;开始无限循环执行，把音频流信息封装下，加入时间戳，并emit到服务端&lt;/span&gt;&lt;/div&gt;&lt;div style=&quot;color: rgb(80 , 79 , 99) ; background-color: rgb(242 , 242 , 242) ; font-family: &amp;#34;menlo&amp;#34; , &amp;#34;monaco&amp;#34; , &amp;#34;courier new&amp;#34; , monospace ; font-size: 14px ; line-height: 28px&quot;&gt;&lt;div style=&quot;font-family: &amp;#34;menlo&amp;#34; , &amp;#34;monaco&amp;#34; , &amp;#34;courier new&amp;#34; , monospace ; line-height: 28px&quot;&gt;&lt;div&gt;&lt;span style=&quot;color: #0c969b ; font-style: italic&quot;&gt;_this&lt;/span&gt;&lt;span style=&quot;color: #994cc3 ; font-style: italic&quot;&gt;.&lt;/span&gt;&lt;span style=&quot;color: #111111 ; font-style: italic&quot;&gt;recorder&lt;/span&gt;&lt;span style=&quot;color: #994cc3 ; font-style: italic&quot;&gt;.&lt;/span&gt;&lt;span style=&quot;color: #4b72c5 ; font-style: italic&quot;&gt;onaudioprocess&lt;/span&gt;&lt;span style=&quot;color: #994cc3 ; font-style: italic&quot;&gt; &lt;/span&gt;&lt;span style=&quot;color: #994cc3&quot;&gt;=&lt;/span&gt;&lt;span style=&quot;color: #994cc3 ; font-style: italic&quot;&gt; &lt;/span&gt;&lt;span style=&quot;color: #994cc3 ; font-weight: bold&quot;&gt;function&lt;/span&gt;&lt;span style=&quot;color: #994cc3 ; font-style: italic&quot;&gt; &lt;/span&gt;&lt;span style=&quot;color: #111111&quot;&gt;(&lt;/span&gt;&lt;span style=&quot;color: #706f83 ; font-style: italic&quot;&gt;e&lt;/span&gt;&lt;span style=&quot;color: #111111&quot;&gt;)&lt;/span&gt;&lt;span style=&quot;color: #994cc3 ; font-style: italic&quot;&gt; &lt;/span&gt;&lt;span style=&quot;color: #994cc3&quot;&gt;{&lt;/span&gt;&lt;/div&gt;&lt;div&gt;&lt;span style=&quot;color: #994cc3&quot;&gt;&amp;nbsp; // 转换音频流数据&lt;/span&gt;&lt;/div&gt;&lt;div&gt;&lt;span style=&quot;color: #994cc3 ; font-style: italic&quot;&gt;&lt;/span&gt;&lt;span style=&quot;color: #994cc3 ; font-weight: bold&quot;&gt;&amp;nbsp; var&lt;/span&gt;&lt;span style=&quot;color: #994cc3 ; font-style: italic&quot;&gt; &lt;/span&gt;&lt;span style=&quot;color: #706f83&quot;&gt;resampled&lt;/span&gt;&lt;span style=&quot;color: #994cc3 ; font-style: italic&quot;&gt; &lt;/span&gt;&lt;span style=&quot;color: #994cc3&quot;&gt;=&lt;/span&gt;&lt;span style=&quot;color: #994cc3 ; font-style: italic&quot;&gt; &lt;/span&gt;&lt;span style=&quot;color: #0c969b ; font-style: italic&quot;&gt;_this&lt;/span&gt;&lt;span style=&quot;color: #994cc3 ; font-style: italic&quot;&gt;.&lt;/span&gt;&lt;span style=&quot;color: #111111 ; font-style: italic&quot;&gt;sampler&lt;/span&gt;&lt;span style=&quot;color: #994cc3 ; font-style: italic&quot;&gt;.&lt;/span&gt;&lt;span style=&quot;color: #4b72c5 ; font-style: italic&quot;&gt;resampler&lt;/span&gt;&lt;span style=&quot;color: #706f83&quot;&gt;(&lt;/span&gt;&lt;span style=&quot;color: #0c969b ; font-style: italic&quot;&gt;e&lt;/span&gt;&lt;span style=&quot;color: #994cc3 ; font-style: italic&quot;&gt;.&lt;/span&gt;&lt;span style=&quot;color: #111111 ; font-style: italic&quot;&gt;inputBuffer&lt;/span&gt;&lt;span style=&quot;color: #994cc3 ; font-style: italic&quot;&gt;.&lt;/span&gt;&lt;span style=&quot;color: #4b72c5 ; font-style: italic&quot;&gt;getChannelData&lt;/span&gt;&lt;span style=&quot;color: #706f83&quot;&gt;(&lt;/span&gt;&lt;span style=&quot;color: #aa0982&quot;&gt;0&lt;/span&gt;&lt;span style=&quot;color: #706f83&quot;&gt;))&lt;/span&gt;&lt;span style=&quot;color: #994cc3&quot;&gt;;&lt;/span&gt;&lt;/div&gt;&lt;div&gt;&lt;span style=&quot;color: #994cc3 ; font-style: italic&quot;&gt;&lt;/span&gt;&lt;span style=&quot;color: #994cc3 ; font-weight: bold&quot;&gt;&amp;nbsp; var&lt;/span&gt;&lt;span style=&quot;color: #994cc3 ; font-style: italic&quot;&gt; &lt;/span&gt;&lt;span style=&quot;color: #706f83&quot;&gt;packets&lt;/span&gt;&lt;span style=&quot;color: #994cc3 ; font-style: italic&quot;&gt; &lt;/span&gt;&lt;span style=&quot;color: #994cc3&quot;&gt;=&lt;/span&gt;&lt;span style=&quot;color: #994cc3 ; font-style: italic&quot;&gt; &lt;/span&gt;&lt;span style=&quot;color: #0c969b ; font-style: italic&quot;&gt;_this&lt;/span&gt;&lt;span style=&quot;color: #994cc3 ; font-style: italic&quot;&gt;.&lt;/span&gt;&lt;span style=&quot;color: #111111 ; font-style: italic&quot;&gt;encoder&lt;/span&gt;&lt;span style=&quot;color: #994cc3 ; font-style: italic&quot;&gt;.&lt;/span&gt;&lt;span style=&quot;color: #4b72c5 ; font-style: italic&quot;&gt;encode_float&lt;/span&gt;&lt;span style=&quot;color: #706f83&quot;&gt;(resampled)&lt;/span&gt;&lt;span style=&quot;color: #994cc3&quot;&gt;;&lt;/span&gt;&lt;/div&gt;&lt;div&gt;&lt;span style=&quot;color: #994cc3 ; font-style: italic&quot;&gt;&lt;/span&gt;&lt;span style=&quot;color: #994cc3 ; font-style: italic ; font-weight: bold&quot;&gt;&amp;nbsp; for&lt;/span&gt;&lt;span style=&quot;color: #994cc3 ; font-style: italic&quot;&gt; &lt;/span&gt;&lt;span style=&quot;color: #706f83&quot;&gt;(&lt;/span&gt;&lt;span style=&quot;color: #994cc3 ; font-weight: bold&quot;&gt;var&lt;/span&gt;&lt;span style=&quot;color: #994cc3 ; font-style: italic&quot;&gt; &lt;/span&gt;&lt;span style=&quot;color: #706f83&quot;&gt;i&lt;/span&gt;&lt;span style=&quot;color: #994cc3 ; font-style: italic&quot;&gt; &lt;/span&gt;&lt;span style=&quot;color: #994cc3&quot;&gt;=&lt;/span&gt;&lt;span style=&quot;color: #994cc3 ; font-style: italic&quot;&gt; &lt;/span&gt;&lt;span style=&quot;color: #aa0982&quot;&gt;0&lt;/span&gt;&lt;span style=&quot;color: #994cc3&quot;&gt;;&lt;/span&gt;&lt;span style=&quot;color: #994cc3 ; font-style: italic&quot;&gt; &lt;/span&gt;&lt;span style=&quot;color: #706f83&quot;&gt;i&lt;/span&gt;&lt;span style=&quot;color: #994cc3 ; font-style: italic&quot;&gt; &lt;/span&gt;&lt;span style=&quot;color: #994cc3&quot;&gt;&amp;lt;&lt;/span&gt;&lt;span style=&quot;color: #994cc3 ; font-style: italic&quot;&gt; &lt;/span&gt;&lt;span style=&quot;color: #0c969b ; font-style: italic&quot;&gt;packets&lt;/span&gt;&lt;span style=&quot;color: #994cc3 ; font-style: italic&quot;&gt;.&lt;/span&gt;&lt;span style=&quot;color: #0c969b ; font-style: italic&quot;&gt;length&lt;/span&gt;&lt;span style=&quot;color: #994cc3&quot;&gt;;&lt;/span&gt;&lt;span style=&quot;color: #994cc3 ; font-style: italic&quot;&gt; &lt;/span&gt;&lt;span style=&quot;color: #706f83&quot;&gt;i&lt;/span&gt;&lt;span style=&quot;color: #994cc3&quot;&gt;++&lt;/span&gt;&lt;span style=&quot;color: #706f83&quot;&gt;)&lt;/span&gt;&lt;span style=&quot;color: #994cc3 ; font-style: italic&quot;&gt; &lt;/span&gt;&lt;span style=&quot;color: #994cc3&quot;&gt;{&lt;/span&gt;&lt;/div&gt;&lt;div&gt;&lt;span style=&quot;color: #994cc3&quot;&gt;&amp;nbsp; &amp;nbsp; // 封装音频数据，加入时间戳&lt;/span&gt;&lt;/div&gt;&lt;div&gt;&lt;span style=&quot;color: #994cc3 ; font-style: italic&quot;&gt;&lt;/span&gt;&lt;span style=&quot;color: #994cc3 ; font-weight: bold&quot;&gt;&amp;nbsp; &amp;nbsp; let&lt;/span&gt;&lt;span style=&quot;color: #994cc3 ; font-style: italic&quot;&gt; &lt;/span&gt;&lt;span style=&quot;color: #706f83&quot;&gt;audioMsg&lt;/span&gt;&lt;span style=&quot;color: #994cc3 ; font-style: italic&quot;&gt; &lt;/span&gt;&lt;span style=&quot;color: #994cc3&quot;&gt;=&lt;/span&gt;&lt;span style=&quot;color: #994cc3 ; font-style: italic&quot;&gt; &lt;/span&gt;&lt;span style=&quot;color: #994cc3&quot;&gt;{&lt;/span&gt;&lt;span style=&quot;color: #994cc3 ; font-style: italic&quot;&gt; timestamp&lt;/span&gt;&lt;span style=&quot;color: #994cc3&quot;&gt;:&lt;/span&gt;&lt;span style=&quot;color: #994cc3 ; font-style: italic&quot;&gt; &lt;/span&gt;&lt;span style=&quot;color: #0c969b ; font-style: italic&quot;&gt;delayDet&lt;/span&gt;&lt;span style=&quot;color: #994cc3 ; font-style: italic&quot;&gt;.&lt;/span&gt;&lt;span style=&quot;color: #4b72c5 ; font-style: italic&quot;&gt;getRemoteTime&lt;/span&gt;&lt;span style=&quot;color: #706f83&quot;&gt;(&lt;/span&gt;&lt;span style=&quot;color: #4b72c5 ; font-style: italic&quot;&gt;getTimestamp&lt;/span&gt;&lt;span style=&quot;color: #706f83&quot;&gt;())&lt;/span&gt;&lt;span style=&quot;color: #5f7e97&quot;&gt;,&lt;/span&gt;&lt;span style=&quot;color: #994cc3 ; font-style: italic&quot;&gt; sn&lt;/span&gt;&lt;span style=&quot;color: #994cc3&quot;&gt;:&lt;/span&gt;&lt;span style=&quot;color: #994cc3 ; font-style: italic&quot;&gt; &lt;/span&gt;&lt;span style=&quot;color: #706f83&quot;&gt;snCount&lt;/span&gt;&lt;span style=&quot;color: #5f7e97&quot;&gt;,&lt;/span&gt;&lt;span style=&quot;color: #994cc3 ; font-style: italic&quot;&gt; data&lt;/span&gt;&lt;span style=&quot;color: #994cc3&quot;&gt;:&lt;/span&gt;&lt;span style=&quot;color: #994cc3 ; font-style: italic&quot;&gt; &lt;/span&gt;&lt;span style=&quot;color: #706f83&quot;&gt;packets[i]&lt;/span&gt;&lt;span style=&quot;color: #994cc3 ; font-style: italic&quot;&gt; &lt;/span&gt;&lt;span style=&quot;color: #994cc3&quot;&gt;}&lt;/span&gt;&lt;/div&gt;&lt;div&gt;&lt;span style=&quot;color: #994cc3 ; font-style: italic&quot;&gt;&lt;/span&gt;&lt;span style=&quot;color: #706f83&quot;&gt;&amp;nbsp; &amp;nbsp; snCount&lt;/span&gt;&lt;span style=&quot;color: #994cc3&quot;&gt;++;&lt;/span&gt;&lt;/div&gt;&lt;div&gt;&lt;span style=&quot;color: #994cc3 ; font-style: italic&quot;&gt;&lt;/span&gt;&lt;span style=&quot;color: #0c969b ; font-style: italic&quot;&gt;&amp;nbsp; &amp;nbsp; socket&lt;/span&gt;&lt;span style=&quot;color: #994cc3 ; font-style: italic&quot;&gt;.&lt;/span&gt;&lt;span style=&quot;color: #4b72c5 ; font-style: italic&quot;&gt;emit&lt;/span&gt;&lt;span style=&quot;color: #706f83&quot;&gt;(&lt;/span&gt;&lt;span style=&quot;color: #111111&quot;&gt;'&lt;/span&gt;&lt;span style=&quot;color: #b95765&quot;&gt;audio&lt;/span&gt;&lt;span style=&quot;color: #111111&quot;&gt;'&lt;/span&gt;&lt;span style=&quot;color: #5f7e97&quot;&gt;,&lt;/span&gt;&lt;span style=&quot;color: #994cc3 ; font-style: italic&quot;&gt; &lt;/span&gt;&lt;span style=&quot;color: #706f83&quot;&gt;audioMsg)&lt;/span&gt;&lt;span style=&quot;color: #994cc3&quot;&gt;;&lt;/span&gt;&lt;/div&gt;&lt;div&gt;&lt;span style=&quot;color: #994cc3 ; font-style: italic&quot;&gt;&lt;/span&gt;&lt;span style=&quot;color: #994cc3&quot;&gt;&amp;nbsp; }&lt;/span&gt;&lt;/div&gt;&lt;div&gt;&lt;span style=&quot;color: #994cc3 ; font-style: italic&quot;&gt;          &lt;/span&gt;&lt;span style=&quot;color: #994cc3&quot;&gt;};&lt;/span&gt;&lt;/div&gt;&lt;/div&gt;&lt;/div&gt;" style="text;html=1;align=left;verticalAlign=middle;resizable=0;points=[];autosize=1;strokeColor=none;fillColor=none;" vertex="1" parent="1">
                    <mxGeometry x="816" y="880" width="880" height="370" as="geometry"/>
                </mxCell>
                <mxCell id="40" value="" style="endArrow=classic;html=1;exitX=0.491;exitY=1.081;exitDx=0;exitDy=0;exitPerimeter=0;" edge="1" parent="1" source="34" target="39">
                    <mxGeometry width="50" height="50" relative="1" as="geometry">
                        <mxPoint x="580" y="760" as="sourcePoint"/>
                        <mxPoint x="630" y="710" as="targetPoint"/>
                    </mxGeometry>
                </mxCell>
                <mxCell id="42" value="" style="endArrow=classic;html=1;exitX=0.026;exitY=-0.014;exitDx=0;exitDy=0;exitPerimeter=0;entryX=0.479;entryY=0.983;entryDx=0;entryDy=0;entryPerimeter=0;" edge="1" parent="1" source="39" target="43">
                    <mxGeometry width="50" height="50" relative="1" as="geometry">
                        <mxPoint x="580" y="880" as="sourcePoint"/>
                        <mxPoint x="799.5121951219512" y="830" as="targetPoint"/>
                    </mxGeometry>
                </mxCell>
                <mxCell id="43" value="&lt;div style=&quot;color: rgb(80 , 79 , 99) ; background-color: rgb(242 , 242 , 242) ; font-family: &amp;#34;menlo&amp;#34; , &amp;#34;monaco&amp;#34; , &amp;#34;courier new&amp;#34; , monospace ; font-size: 14px ; line-height: 28px&quot;&gt;&lt;span style=&quot;color: #0c969b ; font-style: italic&quot;&gt;socket&lt;/span&gt;&lt;span style=&quot;color: #994cc3 ; font-style: italic&quot;&gt;.&lt;/span&gt;&lt;span style=&quot;color: #4b72c5 ; font-style: italic&quot;&gt;emit&lt;/span&gt;&lt;span style=&quot;color: #706f83&quot;&gt;(&lt;/span&gt;&lt;span style=&quot;color: #111111&quot;&gt;'&lt;/span&gt;&lt;span style=&quot;color: #b95765&quot;&gt;audio&lt;/span&gt;&lt;span style=&quot;color: #111111&quot;&gt;'&lt;/span&gt;&lt;span style=&quot;color: #5f7e97&quot;&gt;,&lt;/span&gt;&lt;span style=&quot;color: #994cc3 ; font-style: italic&quot;&gt; &lt;/span&gt;&lt;span style=&quot;color: #706f83&quot;&gt;audioMsg)&lt;/span&gt;&lt;span style=&quot;color: #994cc3&quot;&gt;;&amp;nbsp;&lt;/span&gt;&lt;/div&gt;&lt;div style=&quot;color: rgb(80 , 79 , 99) ; background-color: rgb(242 , 242 , 242) ; font-family: &amp;#34;menlo&amp;#34; , &amp;#34;monaco&amp;#34; , &amp;#34;courier new&amp;#34; , monospace ; font-size: 14px ; line-height: 28px&quot;&gt;&lt;span style=&quot;color: #994cc3&quot;&gt;推流音频信息&lt;/span&gt;&lt;/div&gt;" style="text;html=1;align=center;verticalAlign=middle;resizable=0;points=[];autosize=1;strokeColor=none;fillColor=none;" vertex="1" parent="1">
                    <mxGeometry x="526" y="675" width="290" height="60" as="geometry"/>
                </mxCell>
                <mxCell id="45" value="" style="endArrow=classic;html=1;entryX=0.855;entryY=1;entryDx=0;entryDy=-4.35;entryPerimeter=0;exitX=0.179;exitY=0.017;exitDx=0;exitDy=0;exitPerimeter=0;" edge="1" parent="1" source="43" target="6">
                    <mxGeometry width="50" height="50" relative="1" as="geometry">
                        <mxPoint x="580" y="940" as="sourcePoint"/>
                        <mxPoint x="630" y="890" as="targetPoint"/>
                    </mxGeometry>
                </mxCell>
                <mxCell id="46" value="&lt;div style=&quot;color: rgb(80 , 79 , 99) ; background-color: rgb(242 , 242 , 242) ; font-family: &amp;#34;menlo&amp;#34; , &amp;#34;monaco&amp;#34; , &amp;#34;courier new&amp;#34; , monospace ; font-size: 14px ; line-height: 28px&quot;&gt;&lt;span style=&quot;color: #0c969b ; font-style: italic&quot;&gt;socket&lt;/span&gt;&lt;span style=&quot;color: #994cc3 ; font-style: italic&quot;&gt;.&lt;/span&gt;&lt;span style=&quot;color: #111111 ; font-style: italic&quot;&gt;broadcast&lt;/span&gt;&lt;span style=&quot;color: #994cc3 ; font-style: italic&quot;&gt;.&lt;/span&gt;&lt;span style=&quot;color: #4b72c5 ; font-style: italic&quot;&gt;emit&lt;/span&gt;&lt;span style=&quot;color: #706f83&quot;&gt;(&lt;/span&gt;&lt;span style=&quot;color: #111111&quot;&gt;'&lt;/span&gt;&lt;span style=&quot;color: #b95765&quot;&gt;audio&lt;/span&gt;&lt;span style=&quot;color: #111111&quot;&gt;'&lt;/span&gt;, &lt;span style=&quot;color: #706f83&quot;&gt;msg)&lt;/span&gt;;&lt;/div&gt;&lt;div style=&quot;color: rgb(80 , 79 , 99) ; background-color: rgb(242 , 242 , 242) ; font-family: &amp;#34;menlo&amp;#34; , &amp;#34;monaco&amp;#34; , &amp;#34;courier new&amp;#34; , monospace ; font-size: 14px ; line-height: 28px&quot;&gt;服务端广播音频流到A&lt;/div&gt;" style="text;html=1;align=center;verticalAlign=middle;resizable=0;points=[];autosize=1;strokeColor=none;fillColor=none;" vertex="1" parent="1">
                    <mxGeometry x="50" y="610" width="320" height="60" as="geometry"/>
                </mxCell>
                <mxCell id="47" value="" style="endArrow=classic;html=1;entryX=0.922;entryY=-0.083;entryDx=0;entryDy=0;entryPerimeter=0;exitX=0.145;exitY=1;exitDx=0;exitDy=-4.35;exitPerimeter=0;" edge="1" parent="1" source="6" target="46">
                    <mxGeometry width="50" height="50" relative="1" as="geometry">
                        <mxPoint x="580" y="930" as="sourcePoint"/>
                        <mxPoint x="630" y="880" as="targetPoint"/>
                    </mxGeometry>
                </mxCell>
                <mxCell id="48" value="" style="endArrow=classic;html=1;exitX=0.499;exitY=1.064;exitDx=0;exitDy=0;exitPerimeter=0;entryX=0.548;entryY=0;entryDx=0;entryDy=0;entryPerimeter=0;" edge="1" parent="1" source="46" target="60">
                    <mxGeometry width="50" height="50" relative="1" as="geometry">
                        <mxPoint x="380" y="670" as="sourcePoint"/>
                        <mxPoint y="740" as="targetPoint"/>
                    </mxGeometry>
                </mxCell>
                <mxCell id="52" value="&lt;div style=&quot;color: rgb(80 , 79 , 99) ; background-color: rgb(242 , 242 , 242) ; font-family: &amp;#34;menlo&amp;#34; , &amp;#34;monaco&amp;#34; , &amp;#34;courier new&amp;#34; , monospace ; font-size: 14px ; line-height: 28px&quot;&gt;&lt;span style=&quot;color: rgb(17 , 17 , 17) ; font-style: italic ; font-family: &amp;#34;menlo&amp;#34; , &amp;#34;monaco&amp;#34; , &amp;#34;courier new&amp;#34; , monospace&quot;&gt;Player.&lt;/span&gt;&lt;span style=&quot;color: #0c969b&quot;&gt;audioQueue&lt;/span&gt;&lt;/div&gt;&lt;div style=&quot;color: rgb(80 , 79 , 99) ; background-color: rgb(242 , 242 , 242) ; font-family: &amp;#34;menlo&amp;#34; , &amp;#34;monaco&amp;#34; , &amp;#34;courier new&amp;#34; , monospace ; font-size: 14px ; line-height: 28px&quot;&gt;&lt;span style=&quot;color: #0c969b&quot;&gt;创建音频队列&lt;/span&gt;&lt;/div&gt;" style="text;html=1;align=center;verticalAlign=middle;resizable=0;points=[];autosize=1;strokeColor=none;fillColor=none;" vertex="1" parent="1">
                    <mxGeometry x="-480" y="715" width="160" height="60" as="geometry"/>
                </mxCell>
                <mxCell id="53" value="" style="endArrow=classic;html=1;entryX=0.548;entryY=-0.007;entryDx=0;entryDy=0;entryPerimeter=0;" edge="1" parent="1" source="28" target="52">
                    <mxGeometry width="50" height="50" relative="1" as="geometry">
                        <mxPoint x="380" y="640" as="sourcePoint"/>
                        <mxPoint x="430" y="590" as="targetPoint"/>
                    </mxGeometry>
                </mxCell>
                <mxCell id="56" value="&lt;div style=&quot;color: rgb(80 , 79 , 99) ; background-color: rgb(242 , 242 , 242) ; font-family: &amp;#34;menlo&amp;#34; , &amp;#34;monaco&amp;#34; , &amp;#34;courier new&amp;#34; , monospace ; font-size: 14px ; line-height: 28px&quot;&gt;&lt;span style=&quot;color: #0c969b ; font-style: italic&quot;&gt;audioContext&lt;/span&gt;&lt;span style=&quot;color: #994cc3 ; font-style: italic&quot;&gt;.&lt;/span&gt;&lt;span style=&quot;color: #4b72c5 ; font-style: italic&quot;&gt;createScriptProcessor&lt;/span&gt;&lt;/div&gt;&lt;div style=&quot;background-color: rgb(242 , 242 , 242) ; font-family: &amp;#34;menlo&amp;#34; , &amp;#34;monaco&amp;#34; , &amp;#34;courier new&amp;#34; , monospace ; font-size: 14px ; line-height: 28px&quot;&gt;&lt;font color=&quot;#4b72c5&quot;&gt;&lt;i&gt;创建音频处理器&lt;/i&gt;&lt;/font&gt;&lt;/div&gt;&lt;div style=&quot;background-color: rgb(242 , 242 , 242) ; font-family: &amp;#34;menlo&amp;#34; , &amp;#34;monaco&amp;#34; , &amp;#34;courier new&amp;#34; , monospace ; font-size: 14px ; line-height: 28px&quot;&gt;&lt;span style=&quot;color: rgb(75 , 114 , 197) ; font-style: italic&quot;&gt;createGain&lt;/span&gt;&lt;font color=&quot;#4b72c5&quot;&gt;&lt;i&gt;&lt;br&gt;&lt;/i&gt;&lt;/font&gt;&lt;/div&gt;&lt;div style=&quot;background-color: rgb(242 , 242 , 242) ; font-family: &amp;#34;menlo&amp;#34; , &amp;#34;monaco&amp;#34; , &amp;#34;courier new&amp;#34; , monospace ; font-size: 14px ; line-height: 28px&quot;&gt;&lt;span style=&quot;color: rgb(75 , 114 , 197) ; font-style: italic&quot;&gt;绑定两个的连接&lt;/span&gt;&lt;/div&gt;" style="text;html=1;align=left;verticalAlign=middle;resizable=0;points=[];autosize=1;strokeColor=none;fillColor=none;" vertex="1" parent="1">
                    <mxGeometry x="-770" y="450" width="300" height="120" as="geometry"/>
                </mxCell>
                <mxCell id="57" value="" style="endArrow=classic;html=1;entryX=0.437;entryY=1.032;entryDx=0;entryDy=0;entryPerimeter=0;exitX=-0.009;exitY=0.326;exitDx=0;exitDy=0;exitPerimeter=0;" edge="1" parent="1" source="28" target="56">
                    <mxGeometry width="50" height="50" relative="1" as="geometry">
                        <mxPoint x="-550" y="680" as="sourcePoint"/>
                        <mxPoint x="430" y="660" as="targetPoint"/>
                    </mxGeometry>
                </mxCell>
                <mxCell id="59" value="&lt;div style=&quot;color: rgb(80 , 79 , 99) ; background-color: rgb(242 , 242 , 242) ; font-family: &amp;#34;menlo&amp;#34; , &amp;#34;monaco&amp;#34; , &amp;#34;courier new&amp;#34; , monospace ; font-size: 14px ; line-height: 28px&quot;&gt;&lt;div style=&quot;font-family: &amp;#34;menlo&amp;#34; , &amp;#34;monaco&amp;#34; , &amp;#34;courier new&amp;#34; , monospace ; line-height: 28px&quot;&gt;&lt;br&gt;&lt;/div&gt;&lt;/div&gt;" style="text;html=1;align=center;verticalAlign=middle;resizable=0;points=[];autosize=1;strokeColor=none;fillColor=none;" vertex="1" parent="1">
                    <mxGeometry x="-480" y="900" width="20" height="30" as="geometry"/>
                </mxCell>
                <mxCell id="60" value="&lt;div style=&quot;color: rgb(80 , 79 , 99) ; background-color: rgb(242 , 242 , 242) ; font-family: &amp;#34;menlo&amp;#34; , &amp;#34;monaco&amp;#34; , &amp;#34;courier new&amp;#34; , monospace ; font-size: 14px ; line-height: 28px&quot;&gt;&lt;span style=&quot;color: #111111 ; font-style: italic&quot;&gt;Socket&lt;/span&gt;&lt;span style=&quot;color: #994cc3 ; font-style: italic&quot;&gt;.&lt;/span&gt;&lt;span style=&quot;color: #4b72c5 ; font-style: italic&quot;&gt;on&lt;/span&gt;&lt;span style=&quot;color: #706f83&quot;&gt;(&lt;/span&gt;&lt;span style=&quot;color: #111111&quot;&gt;'&lt;/span&gt;&lt;span style=&quot;color: #b95765&quot;&gt;audio&lt;/span&gt;&lt;span style=&quot;color: #111111&quot;&gt;'&lt;/span&gt;&lt;span style=&quot;color: #5f7e97&quot;&gt;,&lt;/span&gt;&lt;/div&gt;&lt;div style=&quot;color: rgb(80 , 79 , 99) ; background-color: rgb(242 , 242 , 242) ; font-family: &amp;#34;menlo&amp;#34; , &amp;#34;monaco&amp;#34; , &amp;#34;courier new&amp;#34; , monospace ; font-size: 14px ; line-height: 28px&quot;&gt;&lt;span style=&quot;color: #5f7e97&quot;&gt;注册socket接收服务端的audio推送&lt;/span&gt;&lt;/div&gt;" style="text;html=1;align=center;verticalAlign=middle;resizable=0;points=[];autosize=1;strokeColor=none;fillColor=none;" vertex="1" parent="1">
                    <mxGeometry x="-50" y="760" width="250" height="60" as="geometry"/>
                </mxCell>
                <mxCell id="61" value="" style="endArrow=classic;html=1;entryX=-0.006;entryY=0.576;entryDx=0;entryDy=0;entryPerimeter=0;exitX=0.587;exitY=1.064;exitDx=0;exitDy=0;exitPerimeter=0;" edge="1" parent="1" source="28" target="60">
                    <mxGeometry width="50" height="50" relative="1" as="geometry">
                        <mxPoint x="440" y="780" as="sourcePoint"/>
                        <mxPoint x="490" y="730" as="targetPoint"/>
                    </mxGeometry>
                </mxCell>
                <mxCell id="62" value="&lt;div style=&quot;color: rgb(80 , 79 , 99) ; background-color: rgb(242 , 242 , 242) ; font-family: &amp;#34;menlo&amp;#34; , &amp;#34;monaco&amp;#34; , &amp;#34;courier new&amp;#34; , monospace ; font-size: 14px ; line-height: 28px&quot;&gt;&lt;span style=&quot;color: #0c969b ; font-style: italic&quot;&gt;_this&lt;/span&gt;&lt;span style=&quot;color: #994cc3 ; font-style: italic&quot;&gt;.&lt;/span&gt;&lt;span style=&quot;color: #111111 ; font-style: italic&quot;&gt;audioQueue&lt;/span&gt;&lt;span style=&quot;color: #994cc3 ; font-style: italic&quot;&gt;.&lt;/span&gt;&lt;span style=&quot;color: #4b72c5 ; font-style: italic&quot;&gt;write&lt;/span&gt;&lt;/div&gt;&lt;div style=&quot;background-color: rgb(242 , 242 , 242) ; font-family: &amp;#34;menlo&amp;#34; , &amp;#34;monaco&amp;#34; , &amp;#34;courier new&amp;#34; , monospace ; font-size: 14px ; line-height: 28px&quot;&gt;&lt;font color=&quot;#4b72c5&quot;&gt;&lt;i&gt;接收到后写入音频队列&lt;/i&gt;&lt;/font&gt;&lt;/div&gt;" style="text;html=1;align=center;verticalAlign=middle;resizable=0;points=[];autosize=1;strokeColor=none;fillColor=none;" vertex="1" parent="1">
                    <mxGeometry x="-290" y="830" width="200" height="60" as="geometry"/>
                </mxCell>
                <mxCell id="63" value="" style="endArrow=classic;html=1;exitX=-0.006;exitY=0.957;exitDx=0;exitDy=0;exitPerimeter=0;entryX=0.592;entryY=-0.031;entryDx=0;entryDy=0;entryPerimeter=0;" edge="1" parent="1" source="60" target="62">
                    <mxGeometry width="50" height="50" relative="1" as="geometry">
                        <mxPoint x="170" y="840" as="sourcePoint"/>
                        <mxPoint x="220" y="790" as="targetPoint"/>
                    </mxGeometry>
                </mxCell>
                <mxCell id="64" value="" style="endArrow=classic;html=1;entryX=0.596;entryY=1.064;entryDx=0;entryDy=0;entryPerimeter=0;exitX=0.278;exitY=-0.031;exitDx=0;exitDy=0;exitPerimeter=0;" edge="1" parent="1" source="62" target="52">
                    <mxGeometry width="50" height="50" relative="1" as="geometry">
                        <mxPoint x="-370" y="830" as="sourcePoint"/>
                        <mxPoint x="-140" y="570" as="targetPoint"/>
                    </mxGeometry>
                </mxCell>
                <mxCell id="65" value="" style="endArrow=classic;html=1;exitX=0.432;exitY=1.04;exitDx=0;exitDy=0;exitPerimeter=0;entryX=0.491;entryY=-0.133;entryDx=0;entryDy=0;entryPerimeter=0;" edge="1" parent="1" source="52" target="66">
                    <mxGeometry width="50" height="50" relative="1" as="geometry">
                        <mxPoint x="-190" y="620" as="sourcePoint"/>
                        <mxPoint x="-560" y="850" as="targetPoint"/>
                    </mxGeometry>
                </mxCell>
                <mxCell id="66" value="&lt;div style=&quot;color: rgb(80 , 79 , 99) ; background-color: rgb(242 , 242 , 242) ; font-family: &amp;#34;menlo&amp;#34; , &amp;#34;monaco&amp;#34; , &amp;#34;courier new&amp;#34; , monospace ; font-size: 14px ; line-height: 28px&quot;&gt;&lt;span style=&quot;color: rgb(17 , 17 , 17) ; font-style: italic&quot;&gt;Player.&lt;/span&gt;&lt;span style=&quot;color: rgb(12 , 150 , 155)&quot;&gt;audioQueue.&lt;/span&gt;&lt;span style=&quot;color: rgb(75 , 114 , 197) ; font-style: italic&quot;&gt;write&lt;/span&gt;: &lt;span style=&quot;color: rgb(153 , 76 , 195) ; font-weight: bold&quot;&gt;function&lt;/span&gt; &lt;span style=&quot;color: rgb(17 , 17 , 17)&quot;&gt;(&lt;/span&gt;&lt;span style=&quot;color: rgb(112 , 111 , 131)&quot;&gt;newAudio&lt;/span&gt;&lt;span style=&quot;color: rgb(17 , 17 , 17)&quot;&gt;)&lt;/span&gt; {}&lt;/div&gt;" style="text;html=1;align=center;verticalAlign=middle;resizable=0;points=[];autosize=1;strokeColor=none;fillColor=none;" vertex="1" parent="1">
                    <mxGeometry x="-740" y="830" width="410" height="30" as="geometry"/>
                </mxCell>
                <mxCell id="67" value="&lt;div style=&quot;background-color: rgb(242 , 242 , 242) ; font-family: &amp;#34;menlo&amp;#34; , &amp;#34;monaco&amp;#34; , &amp;#34;courier new&amp;#34; , monospace ; font-size: 14px ; line-height: 28px&quot;&gt;&lt;div&gt;&lt;font color=&quot;#994cc3&quot;&gt;计算延迟&lt;/font&gt;&lt;/div&gt;&lt;div style=&quot;color: rgb(80 , 79 , 99)&quot;&gt;&lt;span style=&quot;color: #994cc3&quot;&gt;if&lt;/span&gt; &lt;span style=&quot;color: #706f83&quot;&gt;(avgDelay&lt;/span&gt; &lt;span style=&quot;color: #994cc3&quot;&gt;&amp;lt;&lt;/span&gt; &lt;span style=&quot;color: #aa0982&quot;&gt;15&lt;/span&gt;&lt;span style=&quot;color: #706f83&quot;&gt;)&lt;/span&gt; {&lt;/div&gt;&lt;div style=&quot;color: rgb(80 , 79 , 99)&quot;&gt;          &lt;span style=&quot;color: #706f83&quot;&gt;&amp;nbsp; len&lt;/span&gt; &lt;span style=&quot;color: #994cc3&quot;&gt;=&lt;/span&gt; &lt;span style=&quot;color: #706f83&quot;&gt;(&lt;/span&gt;&lt;span style=&quot;color: #0c969b ; font-style: italic&quot;&gt;audioContext&lt;/span&gt;&lt;span style=&quot;color: #994cc3 ; font-style: italic&quot;&gt;.&lt;/span&gt;&lt;span style=&quot;color: #0c969b&quot;&gt;sampleRate&lt;/span&gt; &lt;span style=&quot;color: #994cc3&quot;&gt;/&lt;/span&gt; &lt;span style=&quot;color: #aa0982&quot;&gt;20&lt;/span&gt;&lt;span style=&quot;color: #706f83&quot;&gt;)&lt;/span&gt; &lt;span style=&quot;color: #994cc3&quot;&gt;*&lt;/span&gt; &lt;span style=&quot;color: #aa0982&quot;&gt;3&lt;/span&gt;;&lt;/div&gt;&lt;div style=&quot;color: rgb(80 , 79 , 99)&quot;&gt;        } &lt;span style=&quot;color: #994cc3&quot;&gt;else&lt;/span&gt; &lt;span style=&quot;color: #994cc3&quot;&gt;if&lt;/span&gt; &lt;span style=&quot;color: #706f83&quot;&gt;(avgDelay&lt;/span&gt; &lt;span style=&quot;color: #994cc3&quot;&gt;&amp;lt;&lt;/span&gt; &lt;span style=&quot;color: #aa0982&quot;&gt;25&lt;/span&gt;&lt;span style=&quot;color: #706f83&quot;&gt;)&lt;/span&gt; {&lt;/div&gt;&lt;div style=&quot;color: rgb(80 , 79 , 99)&quot;&gt;          &lt;span style=&quot;color: #706f83&quot;&gt;&amp;nbsp; len&lt;/span&gt; &lt;span style=&quot;color: #994cc3&quot;&gt;=&lt;/span&gt; &lt;span style=&quot;color: #706f83&quot;&gt;(&lt;/span&gt;&lt;span style=&quot;color: #0c969b ; font-style: italic&quot;&gt;audioContext&lt;/span&gt;&lt;span style=&quot;color: #994cc3 ; font-style: italic&quot;&gt;.&lt;/span&gt;&lt;span style=&quot;color: #0c969b&quot;&gt;sampleRate&lt;/span&gt; &lt;span style=&quot;color: #994cc3&quot;&gt;/&lt;/span&gt; &lt;span style=&quot;color: #aa0982&quot;&gt;10&lt;/span&gt;&lt;span style=&quot;color: #706f83&quot;&gt;)&lt;/span&gt; &lt;span style=&quot;color: #994cc3&quot;&gt;*&lt;/span&gt; &lt;span style=&quot;color: #aa0982&quot;&gt;3&lt;/span&gt;;&lt;/div&gt;&lt;div style=&quot;color: rgb(80 , 79 , 99)&quot;&gt;        } &lt;span style=&quot;color: #994cc3&quot;&gt;else&lt;/span&gt; {&lt;/div&gt;&lt;div style=&quot;color: rgb(80 , 79 , 99)&quot;&gt;          &lt;span style=&quot;color: #706f83&quot;&gt;&amp;nbsp; len&lt;/span&gt; &lt;span style=&quot;color: #994cc3&quot;&gt;=&lt;/span&gt; &lt;span style=&quot;color: #706f83&quot;&gt;(&lt;/span&gt;&lt;span style=&quot;color: #0c969b ; font-style: italic&quot;&gt;audioContext&lt;/span&gt;&lt;span style=&quot;color: #994cc3 ; font-style: italic&quot;&gt;.&lt;/span&gt;&lt;span style=&quot;color: #0c969b&quot;&gt;sampleRate&lt;/span&gt; &lt;span style=&quot;color: #994cc3&quot;&gt;/&lt;/span&gt; &lt;span style=&quot;color: #aa0982&quot;&gt;2&lt;/span&gt;&lt;span style=&quot;color: #706f83&quot;&gt;)&lt;/span&gt;;&lt;/div&gt;&lt;div style=&quot;color: rgb(80 , 79 , 99)&quot;&gt;        }&lt;/div&gt;&lt;/div&gt;" style="text;html=1;align=left;verticalAlign=middle;resizable=0;points=[];autosize=1;strokeColor=#FF6666;fillColor=none;shadow=1;strokeWidth=3;" vertex="1" parent="1">
                    <mxGeometry x="-770" y="900" width="380" height="230" as="geometry"/>
                </mxCell>
                <mxCell id="68" value="" style="endArrow=classic;html=1;exitX=0.325;exitY=0.962;exitDx=0;exitDy=0;exitPerimeter=0;" edge="1" parent="1" source="66">
                    <mxGeometry width="50" height="50" relative="1" as="geometry">
                        <mxPoint x="-190" y="870" as="sourcePoint"/>
                        <mxPoint x="-607" y="890" as="targetPoint"/>
                    </mxGeometry>
                </mxCell>
                <mxCell id="69" value="&lt;div style=&quot;color: rgb(80 , 79 , 99) ; background-color: rgb(242 , 242 , 242) ; font-family: &amp;#34;menlo&amp;#34; , &amp;#34;monaco&amp;#34; , &amp;#34;courier new&amp;#34; , monospace ; font-size: 14px ; line-height: 28px&quot;&gt;&lt;div&gt;&lt;span style=&quot;color: #994cc3&quot;&gt;对比缓冲区大小，选择特定播放速度的&lt;/span&gt;&lt;span style=&quot;color: rgb(75 , 114 , 197) ; font-style: italic&quot;&gt;resampler&lt;/span&gt;&lt;/div&gt;&lt;div&gt;&lt;span style=&quot;color: #994cc3&quot;&gt;if&lt;/span&gt; &lt;span style=&quot;color: #706f83&quot;&gt;(&lt;/span&gt;&lt;span style=&quot;color: #994cc3 ; font-weight: bold&quot;&gt;this&lt;/span&gt;&lt;span style=&quot;color: #994cc3 ; font-style: italic&quot;&gt;.&lt;/span&gt;&lt;span style=&quot;color: #111111 ; font-style: italic&quot;&gt;buffer&lt;/span&gt;&lt;span style=&quot;color: #994cc3 ; font-style: italic&quot;&gt;.&lt;/span&gt;&lt;span style=&quot;color: #0c969b&quot;&gt;length&lt;/span&gt; &lt;span style=&quot;color: #994cc3&quot;&gt;&amp;gt;=&lt;/span&gt; &lt;span style=&quot;color: #4b72c5&quot;&gt;Math&lt;/span&gt;&lt;span style=&quot;color: #994cc3 ; font-style: italic&quot;&gt;.&lt;/span&gt;&lt;span style=&quot;color: #4b72c5&quot;&gt;floor&lt;/span&gt;&lt;span style=&quot;color: #706f83&quot;&gt;(len))&lt;/span&gt; {&lt;/div&gt;&lt;div&gt;          &lt;span style=&quot;color: #706f83&quot;&gt;&amp;nbsp; newAudio&lt;/span&gt; &lt;span style=&quot;color: #994cc3&quot;&gt;=&lt;/span&gt; &lt;span style=&quot;color: #0c969b ; font-style: italic&quot;&gt;_this&lt;/span&gt;&lt;span style=&quot;color: #994cc3 ; font-style: italic&quot;&gt;.&lt;/span&gt;&lt;span style=&quot;color: #111111 ; font-style: italic&quot;&gt;samplerFast&lt;/span&gt;&lt;span style=&quot;color: #994cc3 ; font-style: italic&quot;&gt;.&lt;/span&gt;&lt;span style=&quot;color: #4b72c5 ; font-style: italic&quot;&gt;resampler&lt;/span&gt;&lt;span style=&quot;color: #706f83&quot;&gt;(newAudio)&lt;/span&gt;;&lt;/div&gt;&lt;div&gt;        } &lt;span style=&quot;color: #994cc3&quot;&gt;else&lt;/span&gt; {&lt;/div&gt;&lt;div&gt;          &lt;span style=&quot;color: #706f83&quot;&gt;&amp;nbsp; newAudio&lt;/span&gt; &lt;span style=&quot;color: #994cc3&quot;&gt;=&lt;/span&gt; &lt;span style=&quot;color: #0c969b ; font-style: italic&quot;&gt;_this&lt;/span&gt;&lt;span style=&quot;color: #994cc3 ; font-style: italic&quot;&gt;.&lt;/span&gt;&lt;span style=&quot;color: #111111 ; font-style: italic&quot;&gt;sampler&lt;/span&gt;&lt;span style=&quot;color: #994cc3 ; font-style: italic&quot;&gt;.&lt;/span&gt;&lt;span style=&quot;color: #4b72c5 ; font-style: italic&quot;&gt;resampler&lt;/span&gt;&lt;span style=&quot;color: #706f83&quot;&gt;(newAudio)&lt;/span&gt;;&lt;/div&gt;&lt;div&gt;        }&lt;/div&gt;&lt;/div&gt;" style="text;html=1;align=left;verticalAlign=middle;resizable=0;points=[];autosize=1;strokeColor=#b85450;fillColor=#f8cecc;strokeWidth=3;" vertex="1" parent="1">
                    <mxGeometry x="-1290" y="930" width="450" height="170" as="geometry"/>
                </mxCell>
                <mxCell id="70" value="" style="endArrow=classic;html=1;" edge="1" parent="1" source="67" target="69">
                    <mxGeometry width="50" height="50" relative="1" as="geometry">
                        <mxPoint x="-190" y="910" as="sourcePoint"/>
                        <mxPoint x="-140" y="860" as="targetPoint"/>
                    </mxGeometry>
                </mxCell>
                <mxCell id="71" value="&lt;div style=&quot;color: rgb(80 , 79 , 99) ; background-color: rgb(242 , 242 , 242) ; font-family: &amp;#34;menlo&amp;#34; , &amp;#34;monaco&amp;#34; , &amp;#34;courier new&amp;#34; , monospace ; font-size: 14px ; line-height: 28px&quot;&gt;&lt;div&gt;&lt;span style=&quot;color: #994cc3 ; font-weight: bold&quot;&gt;写入播放的&amp;nbsp;&lt;/span&gt;&lt;span style=&quot;color: rgb(12 , 150 , 155)&quot;&gt;buffer缓冲区中&lt;/span&gt;&lt;/div&gt;&lt;div&gt;&lt;span style=&quot;color: #994cc3 ; font-weight: bold&quot;&gt;var&lt;/span&gt;&lt;span style=&quot;color: #994cc3 ; font-style: italic&quot;&gt; &lt;/span&gt;&lt;span style=&quot;color: #706f83&quot;&gt;newBuffer&lt;/span&gt;&lt;span style=&quot;color: #994cc3 ; font-style: italic&quot;&gt; &lt;/span&gt;&lt;span style=&quot;color: #994cc3&quot;&gt;=&lt;/span&gt;&lt;span style=&quot;color: #994cc3 ; font-style: italic&quot;&gt; &lt;/span&gt;&lt;span style=&quot;color: #994cc3 ; font-weight: bold&quot;&gt;new&lt;/span&gt;&lt;span style=&quot;color: #994cc3 ; font-style: italic&quot;&gt; &lt;/span&gt;&lt;span style=&quot;color: #4b72c5 ; font-style: italic&quot;&gt;Float32Array&lt;/span&gt;&lt;span style=&quot;color: #706f83&quot;&gt;(currentQLength&lt;/span&gt;&lt;span style=&quot;color: #994cc3 ; font-style: italic&quot;&gt; &lt;/span&gt;&lt;span style=&quot;color: #994cc3&quot;&gt;+&lt;/span&gt;&lt;span style=&quot;color: #994cc3 ; font-style: italic&quot;&gt; &lt;/span&gt;&lt;span style=&quot;color: #0c969b ; font-style: italic&quot;&gt;newAudio&lt;/span&gt;&lt;span style=&quot;color: #994cc3 ; font-style: italic&quot;&gt;.&lt;/span&gt;&lt;span style=&quot;color: #0c969b ; font-style: italic&quot;&gt;length&lt;/span&gt;&lt;span style=&quot;color: #706f83&quot;&gt;)&lt;/span&gt;;&lt;/div&gt;&lt;div&gt;        &lt;span style=&quot;color: #0c969b ; font-style: italic&quot;&gt;newBuffer&lt;/span&gt;&lt;span style=&quot;color: #994cc3 ; font-style: italic&quot;&gt;.&lt;/span&gt;&lt;span style=&quot;color: #4b72c5 ; font-style: italic&quot;&gt;set&lt;/span&gt;&lt;span style=&quot;color: #706f83&quot;&gt;(&lt;/span&gt;&lt;span style=&quot;color: #994cc3 ; font-weight: bold&quot;&gt;this&lt;/span&gt;&lt;span style=&quot;color: #994cc3 ; font-style: italic&quot;&gt;.&lt;/span&gt;&lt;span style=&quot;color: #0c969b&quot;&gt;buffer&lt;/span&gt;&lt;span style=&quot;color: #5f7e97&quot;&gt;,&lt;/span&gt; &lt;span style=&quot;color: #aa0982&quot;&gt;0&lt;/span&gt;&lt;span style=&quot;color: #706f83&quot;&gt;)&lt;/span&gt;;&lt;/div&gt;&lt;div&gt;        &lt;span style=&quot;color: #0c969b ; font-style: italic&quot;&gt;newBuffer&lt;/span&gt;&lt;span style=&quot;color: #994cc3 ; font-style: italic&quot;&gt;.&lt;/span&gt;&lt;span style=&quot;color: #4b72c5 ; font-style: italic&quot;&gt;set&lt;/span&gt;&lt;span style=&quot;color: #706f83&quot;&gt;(newAudio&lt;/span&gt;&lt;span style=&quot;color: #5f7e97&quot;&gt;,&lt;/span&gt; &lt;span style=&quot;color: #706f83&quot;&gt;currentQLength)&lt;/span&gt;;&lt;/div&gt;&lt;div&gt;        &lt;span style=&quot;color: #994cc3 ; font-weight: bold&quot;&gt;this&lt;/span&gt;&lt;span style=&quot;color: #994cc3 ; font-style: italic&quot;&gt;.&lt;/span&gt;&lt;span style=&quot;color: #0c969b&quot;&gt;buffer&lt;/span&gt; &lt;span style=&quot;color: #994cc3&quot;&gt;=&lt;/span&gt; &lt;span style=&quot;color: #706f83&quot;&gt;newBuffer&lt;/span&gt;;&lt;/div&gt;&lt;/div&gt;" style="text;html=1;align=left;verticalAlign=middle;resizable=0;points=[];autosize=1;strokeColor=#b85450;fillColor=#f8cecc;" vertex="1" parent="1">
                    <mxGeometry x="-1370" y="630" width="580" height="150" as="geometry"/>
                </mxCell>
                <mxCell id="72" value="" style="endArrow=classic;html=1;entryX=0.522;entryY=1.013;entryDx=0;entryDy=0;entryPerimeter=0;" edge="1" parent="1" source="69" target="71">
                    <mxGeometry width="50" height="50" relative="1" as="geometry">
                        <mxPoint x="350" y="840" as="sourcePoint"/>
                        <mxPoint x="400" y="790" as="targetPoint"/>
                    </mxGeometry>
                </mxCell>
                <mxCell id="73" value="&lt;div style=&quot;color: rgb(80 , 79 , 99) ; background-color: rgb(242 , 242 , 242) ; font-family: &amp;#34;menlo&amp;#34; , &amp;#34;monaco&amp;#34; , &amp;#34;courier new&amp;#34; , monospace ; font-size: 14px ; line-height: 28px&quot;&gt;&lt;span style=&quot;color: #994cc3 ; font-weight: bold&quot;&gt;this&lt;/span&gt;&lt;span style=&quot;color: #994cc3 ; font-style: italic&quot;&gt;.&lt;/span&gt;&lt;span style=&quot;color: #111111 ; font-style: italic&quot;&gt;scriptNode&lt;/span&gt;&lt;span style=&quot;color: #994cc3 ; font-style: italic&quot;&gt;.&lt;/span&gt;&lt;span style=&quot;color: #4b72c5 ; font-style: italic&quot;&gt;onaudioprocess&amp;nbsp;&lt;/span&gt;&lt;i style=&quot;color: rgb(75 , 114 , 197)&quot;&gt;注册播放缓冲区准备好事件&lt;/i&gt;&lt;/div&gt;&lt;div style=&quot;background-color: rgb(242 , 242 , 242) ; font-family: &amp;#34;menlo&amp;#34; , &amp;#34;monaco&amp;#34; , &amp;#34;courier new&amp;#34; , monospace ; font-size: 14px ; line-height: 28px&quot;&gt;&lt;font color=&quot;#4b72c5&quot;&gt;&lt;i&gt;开始无限循环运行&amp;nbsp;&lt;/i&gt;&lt;/font&gt;&lt;font color=&quot;#4b72c5&quot;&gt;&lt;i&gt;读取buffer的数据(&lt;/i&gt;&lt;/font&gt;&lt;span style=&quot;color: rgb(17 , 17 , 17) ; font-style: italic&quot;&gt;audioQueue&lt;/span&gt;&lt;span style=&quot;color: rgb(153 , 76 , 195) ; font-style: italic&quot;&gt;.&lt;/span&gt;&lt;span style=&quot;color: rgb(75 , 114 , 197) ; font-style: italic&quot;&gt;read)&lt;/span&gt;&lt;/div&gt;&lt;div style=&quot;background-color: rgb(242 , 242 , 242) ; font-family: &amp;#34;menlo&amp;#34; , &amp;#34;monaco&amp;#34; , &amp;#34;courier new&amp;#34; , monospace ; font-size: 14px ; line-height: 28px&quot;&gt;&lt;div style=&quot;color: rgb(80 , 79 , 99) ; font-family: &amp;#34;menlo&amp;#34; , &amp;#34;monaco&amp;#34; , &amp;#34;courier new&amp;#34; , monospace ; line-height: 28px&quot;&gt;&lt;div style=&quot;font-family: &amp;#34;menlo&amp;#34; , &amp;#34;monaco&amp;#34; , &amp;#34;courier new&amp;#34; , monospace ; line-height: 28px&quot;&gt;&lt;div&gt;&lt;span style=&quot;color: #994cc3 ; font-weight: bold&quot;&gt;this&lt;/span&gt;&lt;span style=&quot;color: #994cc3 ; font-style: italic&quot;&gt;.&lt;/span&gt;&lt;span style=&quot;color: #111111 ; font-style: italic&quot;&gt;scriptNode&lt;/span&gt;&lt;span style=&quot;color: #994cc3 ; font-style: italic&quot;&gt;.&lt;/span&gt;&lt;span style=&quot;color: #4b72c5 ; font-style: italic&quot;&gt;onaudioprocess&lt;/span&gt; &lt;span style=&quot;color: #994cc3&quot;&gt;=&lt;/span&gt; &lt;span style=&quot;color: #994cc3 ; font-weight: bold&quot;&gt;function&lt;/span&gt; &lt;span style=&quot;color: #111111&quot;&gt;(&lt;/span&gt;&lt;span style=&quot;color: #706f83&quot;&gt;e&lt;/span&gt;&lt;span style=&quot;color: #111111&quot;&gt;)&lt;/span&gt; {&lt;/div&gt;&lt;div&gt;&amp;nbsp; // 读取处理好的缓冲区信息，写入到autoContext的输出缓冲区中&lt;/div&gt;&lt;div&gt;      &lt;span style=&quot;color: #994cc3&quot;&gt;&amp;nbsp; if&lt;/span&gt; &lt;span style=&quot;color: #706f83&quot;&gt;(&lt;/span&gt;&lt;span style=&quot;color: #0c969b ; font-style: italic&quot;&gt;_this&lt;/span&gt;&lt;span style=&quot;color: #994cc3 ; font-style: italic&quot;&gt;.&lt;/span&gt;&lt;span style=&quot;color: #111111 ; font-style: italic&quot;&gt;audioQueue&lt;/span&gt;&lt;span style=&quot;color: #994cc3 ; font-style: italic&quot;&gt;.&lt;/span&gt;&lt;span style=&quot;color: #4b72c5 ; font-style: italic&quot;&gt;length&lt;/span&gt;&lt;span style=&quot;color: #706f83&quot;&gt;()&lt;/span&gt; &lt;span style=&quot;color: #994cc3&quot;&gt;&amp;gt;=&lt;/span&gt; &lt;span style=&quot;color: #0c969b ; font-style: italic&quot;&gt;_this&lt;/span&gt;&lt;span style=&quot;color: #994cc3 ; font-style: italic&quot;&gt;.&lt;/span&gt;&lt;span style=&quot;color: #111111 ; font-style: italic&quot;&gt;config&lt;/span&gt;&lt;span style=&quot;color: #994cc3 ; font-style: italic&quot;&gt;.&lt;/span&gt;&lt;span style=&quot;color: #111111 ; font-style: italic&quot;&gt;codec&lt;/span&gt;&lt;span style=&quot;color: #994cc3 ; font-style: italic&quot;&gt;.&lt;/span&gt;&lt;span style=&quot;color: #0c969b&quot;&gt;bufferSize&lt;/span&gt;&lt;span style=&quot;color: #706f83&quot;&gt;)&lt;/span&gt; {&lt;/div&gt;&lt;div&gt;        &lt;span style=&quot;color: #0c969b ; font-style: italic&quot;&gt;&amp;nbsp; &amp;nbsp; e&lt;/span&gt;&lt;span style=&quot;color: #994cc3 ; font-style: italic&quot;&gt;.&lt;/span&gt;&lt;span style=&quot;color: #111111 ; font-style: italic&quot;&gt;outputBuffer&lt;/span&gt;&lt;span style=&quot;color: #994cc3 ; font-style: italic&quot;&gt;.&lt;/span&gt;&lt;span style=&quot;color: #4b72c5 ; font-style: italic&quot;&gt;getChannelData&lt;/span&gt;&lt;span style=&quot;color: #706f83&quot;&gt;(&lt;/span&gt;&lt;span style=&quot;color: #aa0982&quot;&gt;0&lt;/span&gt;&lt;span style=&quot;color: #706f83&quot;&gt;)&lt;/span&gt;&lt;span style=&quot;color: #994cc3 ; font-style: italic&quot;&gt;.&lt;/span&gt;&lt;span style=&quot;color: #4b72c5 ; font-style: italic&quot;&gt;set&lt;/span&gt;&lt;span style=&quot;color: #706f83&quot;&gt;(&lt;/span&gt;&lt;span style=&quot;color: #0c969b ; font-style: italic&quot;&gt;_this&lt;/span&gt;&lt;span style=&quot;color: #994cc3 ; font-style: italic&quot;&gt;.&lt;/span&gt;&lt;span style=&quot;color: #111111 ; font-style: italic&quot;&gt;audioQueue&lt;/span&gt;&lt;span style=&quot;color: #994cc3 ; font-style: italic&quot;&gt;.&lt;/span&gt;&lt;span style=&quot;color: #4b72c5 ; font-style: italic&quot;&gt;read&lt;/span&gt;&lt;span style=&quot;color: #706f83&quot;&gt;(&lt;/span&gt;&lt;span style=&quot;color: #0c969b ; font-style: italic&quot;&gt;_this&lt;/span&gt;&lt;span style=&quot;color: #994cc3 ; font-style: italic&quot;&gt;.&lt;/span&gt;&lt;span style=&quot;color: #111111 ; font-style: italic&quot;&gt;config&lt;/span&gt;&lt;span style=&quot;color: #994cc3 ; font-style: italic&quot;&gt;.&lt;/span&gt;&lt;span style=&quot;color: #111111 ; font-style: italic&quot;&gt;codec&lt;/span&gt;&lt;span style=&quot;color: #994cc3 ; font-style: italic&quot;&gt;.&lt;/span&gt;&lt;span style=&quot;color: #0c969b&quot;&gt;bufferSize&lt;/span&gt;&lt;span style=&quot;color: #706f83&quot;&gt;))&lt;/span&gt;;&lt;/div&gt;&lt;div&gt;&amp;nbsp; } &lt;span style=&quot;color: #994cc3&quot;&gt;else&lt;/span&gt; {&lt;/div&gt;&lt;div&gt;        &lt;span style=&quot;color: #0c969b ; font-style: italic&quot;&gt;&amp;nbsp; &amp;nbsp; e&lt;/span&gt;&lt;span style=&quot;color: #994cc3 ; font-style: italic&quot;&gt;.&lt;/span&gt;&lt;span style=&quot;color: #111111 ; font-style: italic&quot;&gt;outputBuffer&lt;/span&gt;&lt;span style=&quot;color: #994cc3 ; font-style: italic&quot;&gt;.&lt;/span&gt;&lt;span style=&quot;color: #4b72c5 ; font-style: italic&quot;&gt;getChannelData&lt;/span&gt;&lt;span style=&quot;color: #706f83&quot;&gt;(&lt;/span&gt;&lt;span style=&quot;color: #aa0982&quot;&gt;0&lt;/span&gt;&lt;span style=&quot;color: #706f83&quot;&gt;)&lt;/span&gt;&lt;span style=&quot;color: #994cc3 ; font-style: italic&quot;&gt;.&lt;/span&gt;&lt;span style=&quot;color: #4b72c5 ; font-style: italic&quot;&gt;set&lt;/span&gt;&lt;span style=&quot;color: #706f83&quot;&gt;(&lt;/span&gt;&lt;span style=&quot;color: #0c969b ; font-style: italic&quot;&gt;_this&lt;/span&gt;&lt;span style=&quot;color: #994cc3 ; font-style: italic&quot;&gt;.&lt;/span&gt;&lt;span style=&quot;color: #0c969b&quot;&gt;silence&lt;/span&gt;&lt;span style=&quot;color: #706f83&quot;&gt;)&lt;/span&gt;;&lt;/div&gt;&lt;div&gt;&amp;nbsp; }&lt;/div&gt;&lt;div&gt;    };&lt;/div&gt;&lt;/div&gt;&lt;/div&gt;&lt;/div&gt;" style="text;html=1;align=left;verticalAlign=middle;resizable=0;points=[];autosize=1;strokeColor=none;fillColor=none;" vertex="1" parent="1">
                    <mxGeometry x="-1240" y="125" width="820" height="290" as="geometry"/>
                </mxCell>
                <mxCell id="74" value="" style="endArrow=classic;html=1;exitX=0.261;exitY=-0.015;exitDx=0;exitDy=0;exitPerimeter=0;" edge="1" parent="1" source="56">
                    <mxGeometry width="50" height="50" relative="1" as="geometry">
                        <mxPoint x="-330" y="630" as="sourcePoint"/>
                        <mxPoint x="-692" y="400" as="targetPoint"/>
                    </mxGeometry>
                </mxCell>
                <mxCell id="75" value="" style="endArrow=classic;html=1;entryX=0.121;entryY=0.995;entryDx=0;entryDy=0;entryPerimeter=0;exitX=0.399;exitY=-0.003;exitDx=0;exitDy=0;exitPerimeter=0;" edge="1" parent="1" source="71" target="73">
                    <mxGeometry width="50" height="50" relative="1" as="geometry">
                        <mxPoint x="-590" y="580" as="sourcePoint"/>
                        <mxPoint x="-540" y="530" as="targetPoint"/>
                    </mxGeometry>
                </mxCell>
                <mxCell id="77" value="write" style="text;html=1;align=center;verticalAlign=middle;resizable=0;points=[];autosize=1;strokeColor=none;fillColor=none;fontSize=17;" vertex="1" parent="1">
                    <mxGeometry x="-320" y="780" width="50" height="30" as="geometry"/>
                </mxCell>
                <mxCell id="78" value="注册" style="text;html=1;align=center;verticalAlign=middle;resizable=0;points=[];autosize=1;strokeColor=none;fillColor=none;fontSize=17;" vertex="1" parent="1">
                    <mxGeometry x="-250" y="700" width="50" height="30" as="geometry"/>
                </mxCell>
            </root>
        </mxGraphModel>
    </diagram>
</mxfile>